<?xml version="1.0" encoding="iso-8859-1"?>
<!-- Generator: Adobe Illustrator 16.0.0, SVG Export Plug-In . SVG Version: 6.00 Build 0)  -->
<!DOCTYPE svg PUBLIC "-//W3C//DTD SVG 1.1//EN" "http://www.w3.org/Graphics/SVG/1.1/DTD/svg11.dtd">
<svg version="1.1" id="Capa_1" xmlns="http://www.w3.org/2000/svg" xmlns:xlink="http://www.w3.org/1999/xlink" x="0px" y="0px"
	 width="443.038px" height="443.038px" viewBox="0 0 443.038 443.038" style="enable-background:new 0 0 443.038 443.038;"
	 xml:space="preserve">
<g>
	<g>
		<path d="M80.975,362.442h281.098c17.382,0,21.24-9.744,8.567-21.645l-66.426-62.411c-12.674-11.9-8.813-21.645,8.567-21.645h3.026
			c17.381,0,22.166-10.632,10.635-23.647l-83.944-94.605c-5.767-6.505-13.377-9.754-20.979-9.754c-7.604,0-15.215,3.249-20.98,9.754
			l-83.922,94.605c-11.538,13.016-6.753,23.647,10.637,23.647h3.01c17.39,0,21.249,9.744,8.576,21.645l-66.441,62.411
			C59.725,352.699,63.584,362.442,80.975,362.442z"/>
		<path d="M291.541,411.423h-28.852v-33.175h-83.312v33.175h-28.922c-8.729,0-15.807,7.07-15.807,15.806
			c0,8.74,7.078,15.81,15.807,15.81h141.086c8.735,0,15.807-7.069,15.807-15.81C307.348,418.493,300.277,411.423,291.541,411.423z"
			/>
		<path d="M217.87,2.847c2.067-3.829,5.371-3.791,7.348,0.084l14.395,28.219c1.978,3.875,7.147,7.35,11.47,7.735l26.319,2.307
			c4.322,0.385,5.572,3.412,2.777,6.729l-21.285,25.18c-2.795,3.318-4.508,9.545-3.799,13.828l4.815,29.062
			c0.711,4.283-1.791,6.037-5.572,3.89l-25.84-14.71c-3.783-2.146-9.958-2.146-13.74,0.008L188.81,119.95
			c-3.783,2.153-6.399,0.386-5.827-3.92l4.307-32.246c0.571-4.307-1.39-10.43-4.361-13.61l-21.065-22.515
			c-2.973-3.182-1.867-6.144,2.453-6.599l27.046-2.848c4.323-0.454,9.548-3.951,11.618-7.78L217.87,2.847z"/>
	</g>
</g>
<g>
</g>
<g>
</g>
<g>
</g>
<g>
</g>
<g>
</g>
<g>
</g>
<g>
</g>
<g>
</g>
<g>
</g>
<g>
</g>
<g>
</g>
<g>
</g>
<g>
</g>
<g>
</g>
<g>
</g>
</svg>
